<svg width="173" height="40" viewBox="0 0 173 40" fill="none" xmlns="http://www.w3.org/2000/svg">
<path d="M8.8092 6.78149C9.4164 5.98508 17.3536 6.70902 21.3927 9.59887C25.4319 12.4887 22.4705 19.6484 17.8613 21.109C13.2521 22.5696 8.202 7.57791 8.8092 6.78149Z" fill="#5E72E3" fill-opacity="0.5"/>
<path d="M5.23474 23.4096C4.84273 22.4952 9.5709 16.277 14.2081 14.4111C18.8453 12.5452 23.6555 18.6915 22.5742 23.2712C21.4929 27.8509 5.62675 24.324 5.23474 23.4096Z" fill="#5E72E3" fill-opacity="0.5"/>
<path d="M17.2574 35.7842C16.2524 35.604 13.4489 28.3742 14.3623 23.591C15.2757 18.8078 23.2169 18.2521 26.5906 21.6269C29.9642 25.0017 18.2624 35.9643 17.2574 35.7842Z" fill="#5E72E3" fill-opacity="0.5"/>
<path d="M34.8444 31.8404C34.2134 32.6193 26.3014 31.6709 22.3512 28.6679C18.401 25.6649 21.5772 18.5922 26.2285 17.2627C30.8798 15.9333 35.4753 31.0616 34.8444 31.8404Z" fill="#5E72E3" fill-opacity="0.5"/>
<path d="M40.0701 13.9384C40.5149 14.8299 36.1575 21.2973 31.6367 23.4144C27.116 25.5314 21.9545 19.6586 22.7665 15.027C23.5786 10.3954 39.6254 13.047 40.0701 13.9384Z" fill="#5E72E3" fill-opacity="0.5"/>
<path d="M26.7767 3.61038C27.7909 3.73244 31.0321 10.7885 30.4132 15.6157C29.7943 20.443 21.9011 21.454 18.3268 18.279C14.7524 15.1039 25.7624 3.48831 26.7767 3.61038Z" fill="#5E72E3" fill-opacity="0.5"/>
<path d="M51.4194 9.78076H73.7162V13.051H54.8878V19.5418H73.7162V22.812H54.8878V29.6001H51.4194V9.78076Z" fill="#2F2F3B"/>
<path d="M77.9356 9.78076H81.2553V29.6001H77.9356V9.78076Z" fill="#2F2F3B"/>
<path d="M95.3762 30.2195C93.3943 30.2195 91.6023 29.8726 90.0002 29.179C88.3981 28.4853 87.1347 27.5356 86.2098 26.3299C85.3014 25.1242 84.8472 23.7782 84.8472 22.2917C84.8472 20.8548 85.3014 19.5501 86.2098 18.3774C87.1347 17.2048 88.3981 16.2881 90.0002 15.6275C91.6023 14.9503 93.3943 14.6117 95.3762 14.6117C97.3581 14.6117 99.1501 14.9503 100.752 15.6275C102.354 16.2881 103.609 17.2048 104.518 18.3774C105.443 19.5501 105.905 20.8548 105.905 22.2917C105.905 23.7782 105.443 25.1242 104.518 26.3299C103.609 27.5356 102.354 28.4853 100.752 29.179C99.1501 29.8726 97.3581 30.2195 95.3762 30.2195ZM88.2412 22.2917C88.2412 23.1836 88.5468 23.9929 89.1579 24.7196C89.7855 25.4463 90.6443 26.0161 91.7344 26.429C92.8245 26.8419 94.0384 27.0484 95.3762 27.0484C96.714 27.0484 97.9279 26.8419 99.018 26.429C100.108 26.0161 100.959 25.4463 101.57 24.7196C102.197 23.9929 102.511 23.1836 102.511 22.2917C102.511 21.4329 102.197 20.6649 101.57 19.9877C100.959 19.2941 100.108 18.749 99.018 18.3526C97.9279 17.9562 96.714 17.7581 95.3762 17.7581C94.0384 17.7581 92.8245 17.9562 91.7344 18.3526C90.6443 18.749 89.7855 19.2941 89.1579 19.9877C88.5468 20.6649 88.2412 21.4329 88.2412 22.2917Z" fill="#2F2F3B"/>
<path d="M109.508 15.2311H112.877V17.8571C114.248 16.7836 115.57 15.9908 116.841 15.4788C118.13 14.9503 119.533 14.6861 121.053 14.6861C121.747 14.6861 122.531 14.7356 123.406 14.8347C124.282 14.9173 124.951 15.0577 125.413 15.2559V18.749C125.017 18.5343 124.422 18.3444 123.629 18.1792C122.853 18.0141 121.994 17.9315 121.053 17.9315C119.335 17.9315 117.832 18.1544 116.544 18.6004C115.272 19.0298 114.05 19.7565 112.877 20.7805V29.6001H109.508V15.2311Z" fill="#2F2F3B"/>
<path d="M135.074 30.0956C133.521 30.0956 132.109 29.8561 130.838 29.3771C129.582 28.8982 128.591 28.2458 127.865 27.42C127.138 26.5942 126.775 25.7023 126.775 24.7444C126.775 23.7864 127.138 22.9193 127.865 22.1431C128.591 21.3668 129.582 20.7557 130.838 20.3098C132.109 19.8639 133.521 19.6409 135.074 19.6409C136.693 19.6409 138.361 19.8804 140.078 20.3593C141.813 20.8218 143.2 21.309 144.24 21.821V20.7062C144.24 20.1611 143.894 19.6739 143.2 19.2445C142.523 18.8151 141.581 18.4765 140.376 18.2288C139.17 17.981 137.824 17.8571 136.337 17.8571C133.034 17.8571 130.309 18.3939 128.162 19.4675V16.0486C130.953 15.0907 133.678 14.6117 136.337 14.6117C138.451 14.6117 140.367 14.876 142.085 15.4045C143.803 15.933 145.149 16.668 146.123 17.6094C147.114 18.5343 147.61 19.5666 147.61 20.7062V29.6001H144.24V27.6677C143.068 28.2458 141.639 28.7991 139.954 29.3276C138.286 29.8396 136.66 30.0956 135.074 30.0956ZM130.268 24.7444C130.268 25.1077 130.474 25.4546 130.887 25.7849C131.317 26.0987 131.895 26.363 132.621 26.5777C133.365 26.7759 134.182 26.875 135.074 26.875C136.461 26.875 138.055 26.6602 139.855 26.2308C141.672 25.7849 143.134 25.2894 144.24 24.7444C143.051 24.2159 141.581 23.7699 139.831 23.4066C138.08 23.0432 136.494 22.8615 135.074 22.8615C134.166 22.8615 133.348 22.9441 132.621 23.1093C131.895 23.2744 131.317 23.5057 130.887 23.803C130.474 24.0837 130.268 24.3975 130.268 24.7444Z" fill="#2F2F3B"/>
<path d="M171.339 15.2311L163.312 22.0935L172.082 29.6001H167.375L160.959 24.1002L154.542 29.6001H149.835L158.605 22.0935L150.578 15.2311H155.285L160.959 20.0868L166.632 15.2311H171.339Z" fill="#2F2F3B"/>
</svg>
