<svg width="44" height="40" viewBox="0 0 44 40" fill="none" xmlns="http://www.w3.org/2000/svg">
    <path
        d="M8.72154 6.78105C9.30977 5.98464 16.9989 6.70858 20.9118 9.59843C24.8247 12.4883 21.9559 19.648 17.4907 21.1085C13.0256 22.5691 8.13331 7.57747 8.72154 6.78105Z"
        fill="#94A4FF" fill-opacity="0.5" />
    <path
        d="M5.25853 23.4099C4.87878 22.4955 9.45918 16.2773 13.9515 14.4114C18.4438 12.5455 23.1036 18.6918 22.0561 23.2715C21.0086 27.8512 5.63829 24.3243 5.25853 23.4099Z"
        fill="#94A4FF" fill-opacity="0.5" />
    <path
        d="M16.9057 35.7841C15.9321 35.604 13.2162 28.3741 14.101 23.591C14.9858 18.8078 22.6789 18.252 25.9471 21.6268C29.2154 25.0017 17.8792 35.9642 16.9057 35.7841Z"
        fill="#94A4FF" fill-opacity="0.5" />
    <path
        d="M33.943 31.8408C33.3318 32.6196 25.667 31.6712 21.8403 28.6682C18.0135 25.6653 21.0904 18.5925 25.5964 17.2631C30.1023 15.9336 34.5543 31.0619 33.943 31.8408Z"
        fill="#94A4FF" fill-opacity="0.5" />
    <path
        d="M39.0054 13.9381C39.4363 14.8295 35.215 21.297 30.8355 23.414C26.456 25.531 21.4558 19.6583 22.2425 15.0266C23.0292 10.395 38.5745 13.0467 39.0054 13.9381Z"
        fill="#94A4FF" fill-opacity="0.5" />
    <path
        d="M26.1274 3.61067C27.1099 3.73273 30.2499 10.7888 29.6503 15.616C29.0508 20.4433 21.4042 21.4543 17.9415 18.2793C14.4789 15.1042 25.1448 3.48861 26.1274 3.61067Z"
        fill="#94A4FF" fill-opacity="0.5" />
</svg>